<svg width="114" height="114" viewBox="0 0 114 114" fill="none" xmlns="http://www.w3.org/2000/svg">
<path d="M39.9143 60.2935V61.5735C38.4636 61.6162 37.3543 61.7869 36.5863 62.0855C35.8609 62.3415 35.3703 62.8535 35.1143 63.6215C34.8583 64.3469 34.7303 65.4989 34.7303 67.0775V98.8215C34.7303 100.358 34.8583 101.51 35.1143 102.278C35.3703 103.046 35.8609 103.558 36.5863 103.814C37.3543 104.027 38.4636 104.134 39.9143 104.134H44.5863C46.5916 104.134 48.2129 103.92 49.4503 103.494C50.7303 103.067 51.7329 102.406 52.4583 101.51C53.2263 100.571 53.8023 99.3335 54.1863 97.7975C54.5703 96.2615 54.8689 94.3842 55.0823 92.1655H56.5543C56.4263 93.4882 56.3623 95.2375 56.3623 97.4135C56.3623 98.2242 56.3836 99.3975 56.4263 100.934C56.5116 102.427 56.6396 103.984 56.8103 105.606C54.6343 105.52 52.1809 105.478 49.4503 105.478C46.7196 105.435 44.2876 105.414 42.1543 105.414C41.2156 105.414 39.9996 105.414 38.5063 105.414C37.0556 105.414 35.4769 105.435 33.7703 105.478C32.0636 105.478 30.3356 105.499 28.5863 105.542C26.8369 105.542 25.1729 105.563 23.5943 105.606V104.326C25.0449 104.24 26.1329 104.07 26.8583 103.814C27.6263 103.558 28.1383 103.046 28.3943 102.278C28.6503 101.51 28.7783 100.358 28.7783 98.8215V67.0775C28.7783 65.4989 28.6503 64.3469 28.3943 63.6215C28.1383 62.8535 27.6263 62.3415 26.8583 62.0855C26.1329 61.7869 25.0449 61.6162 23.5943 61.5735V60.2935C24.4903 60.3362 25.6636 60.3789 27.1143 60.4215C28.5649 60.4642 30.1223 60.4855 31.7863 60.4855C33.2796 60.4855 34.7516 60.4642 36.2023 60.4215C37.6956 60.3789 38.9329 60.3362 39.9143 60.2935ZM74.9153 59.5895C77.0486 59.5895 78.6699 59.8455 79.7793 60.3575C80.8886 60.8269 81.8699 61.3602 82.7233 61.9575C83.2353 62.2562 83.6406 62.4909 83.9393 62.6615C84.2806 62.7895 84.6006 62.8535 84.8993 62.8535C85.3259 62.8535 85.6246 62.6189 85.7953 62.1495C86.0086 61.6802 86.1793 60.9762 86.3073 60.0375H87.7793C87.7366 60.7629 87.6726 61.6375 87.5873 62.6615C87.5446 63.6429 87.5019 64.9655 87.4593 66.6295C87.4593 68.2509 87.4593 70.4055 87.4593 73.0935H85.9873C85.8593 71.0455 85.4113 69.0829 84.6433 67.2055C83.8753 65.3282 82.7446 63.7922 81.2513 62.5975C79.8006 61.4029 77.8806 60.8055 75.4913 60.8055C73.2299 60.8055 71.3526 61.4882 69.8593 62.8535C68.4086 64.2189 67.6833 66.0109 67.6833 68.2295C67.6833 70.1495 68.1739 71.7709 69.1553 73.0935C70.1366 74.3735 71.4379 75.5469 73.0593 76.6135C74.7233 77.6375 76.5153 78.7469 78.4353 79.9415C80.6539 81.3069 82.6166 82.6722 84.3233 84.0375C86.0726 85.3602 87.4379 86.8322 88.4193 88.4535C89.4433 90.0749 89.9553 92.0375 89.9553 94.3415C89.9553 97.0722 89.3366 99.3335 88.0993 101.126C86.8619 102.918 85.2193 104.262 83.1713 105.158C81.1233 106.054 78.8619 106.502 76.3873 106.502C74.1259 106.502 72.3339 106.246 71.0113 105.734C69.6886 105.222 68.5579 104.688 67.6193 104.134C66.6806 103.536 65.9553 103.238 65.4433 103.238C65.0166 103.238 64.6966 103.472 64.4833 103.942C64.3126 104.411 64.1633 105.115 64.0353 106.054H62.5633C62.6486 105.158 62.6913 104.112 62.6913 102.918C62.7339 101.68 62.7552 100.08 62.7552 98.1175C62.7979 96.1549 62.8193 93.6802 62.8193 90.6935H64.2913C64.4619 93.2535 64.9313 95.6429 65.6993 97.8615C66.5099 100.08 67.7259 101.872 69.3473 103.238C71.0113 104.56 73.2086 105.222 75.9393 105.222C77.3473 105.222 78.6699 104.944 79.9073 104.39C81.1873 103.792 82.2326 102.875 83.0433 101.638C83.8539 100.358 84.2593 98.7149 84.2593 96.7095C84.2593 94.9602 83.8326 93.4455 82.9793 92.1655C82.1686 90.8429 81.0166 89.6269 79.5233 88.5175C78.0299 87.3655 76.2806 86.1922 74.2753 84.9975C72.2699 83.7602 70.3926 82.5015 68.6433 81.2215C66.8939 79.9415 65.4859 78.4695 64.4193 76.8055C63.3953 75.0989 62.8833 73.0509 62.8833 70.6615C62.8833 68.1442 63.4379 66.0749 64.5473 64.4535C65.6993 62.7895 67.1926 61.5735 69.0273 60.8055C70.8619 59.9949 72.8246 59.5895 74.9153 59.5895Z" fill="white"/>
<g clip-path="url(#clip0_73_244)">
<g filter="url(#filter0_d_73_244)">
<path d="M40.995 44.9857H68.995M54.119 9.51769C54.2053 9.3609 54.3321 9.23016 54.4862 9.1391C54.6403 9.04804 54.816 9 54.995 9C55.174 9 55.3497 9.04804 55.5038 9.1391C55.6578 9.23016 55.7847 9.3609 55.871 9.51769L61.775 20.7257C61.9158 20.9852 62.1123 21.2103 62.3504 21.3849C62.5885 21.5595 62.8623 21.6792 63.1522 21.7354C63.442 21.7916 63.7408 21.783 64.0269 21.71C64.313 21.6371 64.5794 21.5018 64.807 21.3137L73.361 13.9857C73.5252 13.8521 73.7275 13.7741 73.9389 13.7629C74.1503 13.7517 74.3597 13.8078 74.5372 13.9232C74.7146 14.0386 74.8509 14.2073 74.9263 14.4051C75.0017 14.6028 75.0125 14.8194 74.957 15.0237L69.289 35.5157C69.1733 35.935 68.924 36.3052 68.579 36.5701C68.234 36.835 67.812 36.9802 67.377 36.9837H42.615C42.1797 36.9807 41.7572 36.8357 41.4118 36.5707C41.0663 36.3058 40.8168 35.9353 40.701 35.5157L35.035 15.0257C34.9795 14.8214 34.9902 14.6048 35.0657 14.4071C35.1411 14.2093 35.2774 14.0406 35.4548 13.9252C35.6322 13.8098 35.8417 13.7537 36.0531 13.7649C36.2644 13.7761 36.4668 13.8541 36.631 13.9877L45.183 21.3157C45.4106 21.5038 45.677 21.6391 45.9631 21.712C46.2492 21.785 46.5479 21.7936 46.8378 21.7374C47.1276 21.6812 47.4015 21.5615 47.6396 21.3869C47.8777 21.2123 48.0742 20.9872 48.215 20.7277L54.119 9.51769Z" stroke="#D4AF37" stroke-width="5" stroke-linecap="round" stroke-linejoin="round" shape-rendering="crispEdges"/>
</g>
</g>
<defs>
<filter id="filter0_d_73_244" x="21.9" y="-4.1" width="66.192" height="62.1857" filterUnits="userSpaceOnUse" color-interpolation-filters="sRGB">
<feFlood flood-opacity="0" result="BackgroundImageFix"/>
<feColorMatrix in="SourceAlpha" type="matrix" values="0 0 0 0 0 0 0 0 0 0 0 0 0 0 0 0 0 0 127 0" result="hardAlpha"/>
<feOffset/>
<feGaussianBlur stdDeviation="5.3"/>
<feComposite in2="hardAlpha" operator="out"/>
<feColorMatrix type="matrix" values="0 0 0 0 0.831373 0 0 0 0 0.686275 0 0 0 0 0.215686 0 0 0 1 0"/>
<feBlend mode="normal" in2="BackgroundImageFix" result="effect1_dropShadow_73_244"/>
<feBlend mode="normal" in="SourceGraphic" in2="effect1_dropShadow_73_244" result="shape"/>
</filter>
<clipPath id="clip0_73_244">
<rect width="63" height="63" fill="white" transform="translate(26)"/>
</clipPath>
</defs>
</svg>
